<?xml version="1.0" encoding="UTF-8"?>
<svg version="1.1" xmlns="http://www.w3.org/2000/svg" width="31" height="28">
<path d="M0 0 C2.54839304 0.92360757 3.80583762 1.57728671 5.31323242 3.83837891 C4.77275888 9.89413928 -1.41078121 14.11645821 -5.43676758 18.15087891 C-6.34426758 19.09511719 -7.25176758 20.03935547 -8.18676758 21.01220703 C-9.06848633 21.89972656 -9.95020508 22.78724609 -10.85864258 23.70166016 C-12.06665527 24.92816284 -12.06665527 24.92816284 -13.29907227 26.17944336 C-15.68676758 27.83837891 -15.68676758 27.83837891 -18.36352539 27.72192383 C-20.68676758 26.83837891 -20.68676758 26.83837891 -22.68676758 24.83837891 C-23.07421875 22.51953125 -23.07421875 22.51953125 -22.68676758 19.83837891 C-19.89461664 15.99262271 -16.38218723 12.79245278 -12.99926758 9.46337891 C-12.08725586 8.52365234 -11.17524414 7.58392578 -10.2355957 6.61572266 C-9.34936523 5.73271484 -8.46313477 4.84970703 -7.55004883 3.93994141 C-6.73834229 3.1286377 -5.92663574 2.31733398 -5.09033203 1.48144531 C-2.68676758 -0.16162109 -2.68676758 -0.16162109 0 0 Z M-2.24926758 4.33837891 C-2.72364258 4.83337891 -3.19801758 5.32837891 -3.68676758 5.83837891 C-3.35676758 6.82837891 -3.02676758 7.81837891 -2.68676758 8.83837891 C-1.36676758 7.84837891 -0.04676758 6.85837891 1.31323242 5.83837891 C0.98323242 4.84837891 0.65323242 3.85837891 0.31323242 2.83837891 C-0.9275306 2.72295693 -0.9275306 2.72295693 -2.24926758 4.33837891 Z " fill="#2562EA" transform="translate(22.686767578125,0.16162109375)"/>
<path d="M0 0 C0.99 0 1.98 0 3 0 C3 0.99 3 1.98 3 3 C4.32 3.33 5.64 3.66 7 4 C7 4.66 7 5.32 7 6 C5.68 6 4.36 6 3 6 C3 7.32 3 8.64 3 10 C2.01 9.67 1.02 9.34 0 9 C0 8.01 0 7.02 0 6 C-0.99 6 -1.98 6 -3 6 C-3 5.01 -3 4.02 -3 3 C-2.01 3 -1.02 3 0 3 C0 2.01 0 1.02 0 0 Z " fill="#2462EA" transform="translate(5,0)"/>
<path d="M0 0 C0.66 0.33 1.32 0.66 2 1 C2 1.99 2 2.98 2 4 C2.99 4 3.98 4 5 4 C5 4.99 5 5.98 5 7 C4.01 7 3.02 7 2 7 C1.67 8.32 1.34 9.64 1 11 C0.34 10.67 -0.32 10.34 -1 10 C-1 9.01 -1 8.02 -1 7 C-2.32 6.67 -3.64 6.34 -5 6 C-4.67 5.34 -4.34 4.68 -4 4 C-3.01 4 -2.02 4 -1 4 C-0.67 2.68 -0.34 1.36 0 0 Z " fill="#2462EA" transform="translate(26,12)"/>
<path d="M0 0 C0.99 0 1.98 0 3 0 C3 0.66 3 1.32 3 2 C3.66 2 4.32 2 5 2 C5 2.99 5 3.98 5 5 C4.34 5 3.68 5 3 5 C3 5.66 3 6.32 3 7 C2.01 7 1.02 7 0 7 C0 6.34 0 5.68 0 5 C-0.66 5 -1.32 5 -2 5 C-2 4.01 -2 3.02 -2 2 C-1.34 2 -0.68 2 0 2 C0 1.34 0 0.68 0 0 Z " fill="#2462EA" transform="translate(18,21)"/>
</svg>
